<mxfile host="Electron" modified="2023-12-20T11:33:03.056Z" agent="Mozilla/5.0 (Windows NT 10.0; Win64; x64) AppleWebKit/537.36 (KHTML, like Gecko) draw.io/22.1.2 Chrome/114.0.5735.289 Electron/25.9.4 Safari/537.36" etag="TIPFAsR4br8g8ggwjY1G" version="22.1.2" type="device">
  <diagram name="Pagina-1" id="xXX1hZd99lZUUE8IBTiR">
    <mxGraphModel dx="1713" dy="776" grid="0" gridSize="10" guides="1" tooltips="1" connect="1" arrows="1" fold="1" page="0" pageScale="1" pageWidth="827" pageHeight="1169" math="0" shadow="0">
      <root>
        <mxCell id="0" />
        <mxCell id="1" parent="0" />
        <mxCell id="UATzCVgmIZ4_wf5Clua5-1" value="&lt;font style=&quot;font-size: 16px;&quot;&gt;UTENTE&lt;/font&gt;" style="whiteSpace=wrap;html=1;align=center;" parent="1" vertex="1">
          <mxGeometry x="120" y="280" width="100" height="40" as="geometry" />
        </mxCell>
        <mxCell id="UATzCVgmIZ4_wf5Clua5-2" value="&lt;font style=&quot;font-size: 16px;&quot;&gt;CARTA&lt;br&gt;&lt;/font&gt;" style="whiteSpace=wrap;html=1;align=center;" parent="1" vertex="1">
          <mxGeometry x="580" y="280" width="100" height="40" as="geometry" />
        </mxCell>
        <mxCell id="UATzCVgmIZ4_wf5Clua5-3" value="&lt;font style=&quot;font-size: 16px;&quot;&gt;PERSONA&lt;/font&gt;" style="whiteSpace=wrap;html=1;align=center;" parent="1" vertex="1">
          <mxGeometry x="120" y="480" width="100" height="40" as="geometry" />
        </mxCell>
        <mxCell id="UATzCVgmIZ4_wf5Clua5-4" value="&lt;font style=&quot;font-size: 16px;&quot;&gt;TRANSAZIONE&lt;/font&gt;" style="whiteSpace=wrap;html=1;align=center;" parent="1" vertex="1">
          <mxGeometry x="105" y="680" width="130" height="40" as="geometry" />
        </mxCell>
        <mxCell id="UATzCVgmIZ4_wf5Clua5-5" value="&lt;font style=&quot;font-size: 16px;&quot;&gt;PORTAFOGLI&lt;br&gt;&lt;/font&gt;" style="whiteSpace=wrap;html=1;align=center;" parent="1" vertex="1">
          <mxGeometry x="580" y="480" width="110" height="40" as="geometry" />
        </mxCell>
        <mxCell id="UATzCVgmIZ4_wf5Clua5-7" value="&lt;font style=&quot;font-size: 16px;&quot;&gt;CATEGORIA&lt;/font&gt;" style="whiteSpace=wrap;html=1;align=center;" parent="1" vertex="1">
          <mxGeometry x="720" y="650" width="100" height="40" as="geometry" />
        </mxCell>
        <mxCell id="UATzCVgmIZ4_wf5Clua5-8" value="&lt;font style=&quot;font-size: 16px;&quot;&gt;EMAIL&lt;/font&gt;" style="ellipse;whiteSpace=wrap;html=1;align=center;" parent="1" vertex="1">
          <mxGeometry y="200" width="100" height="40" as="geometry" />
        </mxCell>
        <mxCell id="UATzCVgmIZ4_wf5Clua5-9" value="&lt;font style=&quot;font-size: 16px;&quot;&gt;PASSWORD&lt;/font&gt;" style="ellipse;whiteSpace=wrap;html=1;align=center;" parent="1" vertex="1">
          <mxGeometry x="260" y="200" width="100" height="40" as="geometry" />
        </mxCell>
        <mxCell id="UATzCVgmIZ4_wf5Clua5-12" value="" style="endArrow=none;html=1;rounded=0;exitX=0.5;exitY=1;exitDx=0;exitDy=0;entryX=0;entryY=0;entryDx=0;entryDy=0;" parent="1" source="UATzCVgmIZ4_wf5Clua5-8" target="UATzCVgmIZ4_wf5Clua5-1" edge="1">
          <mxGeometry relative="1" as="geometry">
            <mxPoint x="30" y="270" as="sourcePoint" />
            <mxPoint x="190" y="270" as="targetPoint" />
          </mxGeometry>
        </mxCell>
        <mxCell id="UATzCVgmIZ4_wf5Clua5-13" value="" style="endArrow=none;html=1;rounded=0;exitX=0;exitY=1;exitDx=0;exitDy=0;entryX=1;entryY=0;entryDx=0;entryDy=0;" parent="1" source="UATzCVgmIZ4_wf5Clua5-9" target="UATzCVgmIZ4_wf5Clua5-1" edge="1">
          <mxGeometry relative="1" as="geometry">
            <mxPoint x="250" y="260" as="sourcePoint" />
            <mxPoint x="309" y="296" as="targetPoint" />
          </mxGeometry>
        </mxCell>
        <mxCell id="UATzCVgmIZ4_wf5Clua5-14" value="&lt;font style=&quot;font-size: 16px;&quot;&gt;NUMERO&lt;/font&gt;" style="ellipse;whiteSpace=wrap;html=1;align=center;" parent="1" vertex="1">
          <mxGeometry x="490" y="200" width="100" height="40" as="geometry" />
        </mxCell>
        <mxCell id="UATzCVgmIZ4_wf5Clua5-15" value="&lt;font style=&quot;font-size: 16px;&quot;&gt;SALDO&lt;/font&gt;" style="ellipse;whiteSpace=wrap;html=1;align=center;" parent="1" vertex="1">
          <mxGeometry x="670" y="190" width="100" height="40" as="geometry" />
        </mxCell>
        <mxCell id="UATzCVgmIZ4_wf5Clua5-18" value="" style="endArrow=none;html=1;rounded=0;entryX=0;entryY=0;entryDx=0;entryDy=0;" parent="1" source="UATzCVgmIZ4_wf5Clua5-14" target="UATzCVgmIZ4_wf5Clua5-2" edge="1">
          <mxGeometry relative="1" as="geometry">
            <mxPoint x="440" y="340" as="sourcePoint" />
            <mxPoint x="600" y="340" as="targetPoint" />
          </mxGeometry>
        </mxCell>
        <mxCell id="UATzCVgmIZ4_wf5Clua5-19" value="" style="endArrow=none;html=1;rounded=0;exitX=0.66;exitY=-0.096;exitDx=0;exitDy=0;exitPerimeter=0;" parent="1" source="UATzCVgmIZ4_wf5Clua5-2" target="UATzCVgmIZ4_wf5Clua5-15" edge="1">
          <mxGeometry relative="1" as="geometry">
            <mxPoint x="460" y="350" as="sourcePoint" />
            <mxPoint x="700" y="230" as="targetPoint" />
          </mxGeometry>
        </mxCell>
        <mxCell id="UATzCVgmIZ4_wf5Clua5-22" value="" style="endArrow=none;html=1;rounded=0;entryX=0;entryY=0.5;entryDx=0;entryDy=0;exitX=1;exitY=0.5;exitDx=0;exitDy=0;" parent="1" source="UATzCVgmIZ4_wf5Clua5-1" target="UATzCVgmIZ4_wf5Clua5-2" edge="1">
          <mxGeometry relative="1" as="geometry">
            <mxPoint x="470" y="300" as="sourcePoint" />
            <mxPoint x="590" y="290" as="targetPoint" />
          </mxGeometry>
        </mxCell>
        <mxCell id="UATzCVgmIZ4_wf5Clua5-23" value="" style="endArrow=none;html=1;rounded=0;entryX=0.25;entryY=0;entryDx=0;entryDy=0;exitX=0.533;exitY=1;exitDx=0;exitDy=0;exitPerimeter=0;" parent="1" source="UATzCVgmIZ4_wf5Clua5-1" edge="1">
          <mxGeometry relative="1" as="geometry">
            <mxPoint x="166.64999999999995" y="320" as="sourcePoint" />
            <mxPoint x="173.35" y="480.0000000000001" as="targetPoint" />
          </mxGeometry>
        </mxCell>
        <mxCell id="UATzCVgmIZ4_wf5Clua5-24" value="" style="endArrow=none;html=1;rounded=0;entryX=0.5;entryY=0;entryDx=0;entryDy=0;exitX=0.5;exitY=1;exitDx=0;exitDy=0;" parent="1" source="UATzCVgmIZ4_wf5Clua5-2" target="UATzCVgmIZ4_wf5Clua5-5" edge="1">
          <mxGeometry relative="1" as="geometry">
            <mxPoint x="490" y="330" as="sourcePoint" />
            <mxPoint x="490.35" y="490.0000000000001" as="targetPoint" />
          </mxGeometry>
        </mxCell>
        <mxCell id="UATzCVgmIZ4_wf5Clua5-25" value="&lt;font style=&quot;font-size: 16px;&quot;&gt;COGNOME&lt;/font&gt;" style="ellipse;whiteSpace=wrap;html=1;align=center;" parent="1" vertex="1">
          <mxGeometry x="130" y="580" width="100" height="40" as="geometry" />
        </mxCell>
        <mxCell id="UATzCVgmIZ4_wf5Clua5-26" value="&lt;font style=&quot;font-size: 16px;&quot;&gt;PAESE&lt;/font&gt;" style="ellipse;whiteSpace=wrap;html=1;align=center;" parent="1" vertex="1">
          <mxGeometry x="10" y="400" width="100" height="40" as="geometry" />
        </mxCell>
        <mxCell id="UATzCVgmIZ4_wf5Clua5-27" value="&lt;font style=&quot;font-size: 16px;&quot;&gt;NOME&lt;/font&gt;" style="ellipse;whiteSpace=wrap;html=1;align=center;" parent="1" vertex="1">
          <mxGeometry x="-20" y="560" width="100" height="40" as="geometry" />
        </mxCell>
        <mxCell id="UATzCVgmIZ4_wf5Clua5-28" value="" style="endArrow=none;html=1;rounded=0;exitX=1;exitY=0.5;exitDx=0;exitDy=0;entryX=0;entryY=0.75;entryDx=0;entryDy=0;" parent="1" source="UATzCVgmIZ4_wf5Clua5-3" target="UATzCVgmIZ4_wf5Clua5-2" edge="1">
          <mxGeometry relative="1" as="geometry">
            <mxPoint x="230" y="499.57" as="sourcePoint" />
            <mxPoint x="300" y="440" as="targetPoint" />
            <Array as="points" />
          </mxGeometry>
        </mxCell>
        <mxCell id="UATzCVgmIZ4_wf5Clua5-29" value="" style="endArrow=none;html=1;rounded=0;exitX=0.5;exitY=1;exitDx=0;exitDy=0;entryX=0;entryY=0.5;entryDx=0;entryDy=0;" parent="1" source="UATzCVgmIZ4_wf5Clua5-26" target="UATzCVgmIZ4_wf5Clua5-3" edge="1">
          <mxGeometry relative="1" as="geometry">
            <mxPoint x="11.5" y="529" as="sourcePoint" />
            <mxPoint x="88.5" y="471" as="targetPoint" />
          </mxGeometry>
        </mxCell>
        <mxCell id="UATzCVgmIZ4_wf5Clua5-30" value="" style="endArrow=none;html=1;rounded=0;exitX=1;exitY=0.5;exitDx=0;exitDy=0;entryX=0.4;entryY=1;entryDx=0;entryDy=0;entryPerimeter=0;" parent="1" source="UATzCVgmIZ4_wf5Clua5-27" target="UATzCVgmIZ4_wf5Clua5-3" edge="1">
          <mxGeometry relative="1" as="geometry">
            <mxPoint x="110" y="560" as="sourcePoint" />
            <mxPoint x="170" y="620" as="targetPoint" />
          </mxGeometry>
        </mxCell>
        <mxCell id="UATzCVgmIZ4_wf5Clua5-31" value="&lt;font style=&quot;font-size: 16px;&quot;&gt;VALORE&lt;/font&gt;" style="ellipse;whiteSpace=wrap;html=1;align=center;" parent="1" vertex="1">
          <mxGeometry x="-60" y="720" width="100" height="40" as="geometry" />
        </mxCell>
        <mxCell id="UATzCVgmIZ4_wf5Clua5-34" value="" style="endArrow=none;html=1;rounded=0;entryX=0;entryY=1;entryDx=0;entryDy=0;exitX=0.694;exitY=-0.009;exitDx=0;exitDy=0;exitPerimeter=0;" parent="1" source="UATzCVgmIZ4_wf5Clua5-4" target="UATzCVgmIZ4_wf5Clua5-2" edge="1">
          <mxGeometry relative="1" as="geometry">
            <mxPoint x="200" y="630" as="sourcePoint" />
            <mxPoint x="360" y="630" as="targetPoint" />
          </mxGeometry>
        </mxCell>
        <mxCell id="UATzCVgmIZ4_wf5Clua5-35" value="" style="endArrow=none;html=1;rounded=0;entryX=0;entryY=0.5;entryDx=0;entryDy=0;exitX=1;exitY=0.25;exitDx=0;exitDy=0;exitPerimeter=0;" parent="1" source="UATzCVgmIZ4_wf5Clua5-31" target="UATzCVgmIZ4_wf5Clua5-4" edge="1">
          <mxGeometry relative="1" as="geometry">
            <mxPoint x="-55" y="690" as="sourcePoint" />
            <mxPoint x="105" y="690" as="targetPoint" />
          </mxGeometry>
        </mxCell>
        <mxCell id="UATzCVgmIZ4_wf5Clua5-38" value="" style="endArrow=none;html=1;rounded=0;entryX=0;entryY=1;entryDx=0;entryDy=0;exitX=1;exitY=0.5;exitDx=0;exitDy=0;" parent="1" source="UATzCVgmIZ4_wf5Clua5-4" target="UATzCVgmIZ4_wf5Clua5-5" edge="1">
          <mxGeometry relative="1" as="geometry">
            <mxPoint x="180" y="830" as="sourcePoint" />
            <mxPoint x="565" y="470" as="targetPoint" />
          </mxGeometry>
        </mxCell>
        <mxCell id="UATzCVgmIZ4_wf5Clua5-39" value="" style="endArrow=none;html=1;rounded=0;exitX=1;exitY=1;exitDx=0;exitDy=0;" parent="1" source="UATzCVgmIZ4_wf5Clua5-5" target="UATzCVgmIZ4_wf5Clua5-7" edge="1">
          <mxGeometry relative="1" as="geometry">
            <mxPoint x="245" y="710" as="sourcePoint" />
            <mxPoint x="590" y="530" as="targetPoint" />
          </mxGeometry>
        </mxCell>
        <mxCell id="UATzCVgmIZ4_wf5Clua5-40" value="&lt;font style=&quot;font-size: 16px;&quot;&gt;NOME&lt;/font&gt;" style="ellipse;whiteSpace=wrap;html=1;align=center;" parent="1" vertex="1">
          <mxGeometry x="910" y="650" width="100" height="40" as="geometry" />
        </mxCell>
        <mxCell id="UATzCVgmIZ4_wf5Clua5-41" value="&lt;font style=&quot;font-size: 16px;&quot;&gt;NOME&lt;/font&gt;" style="ellipse;whiteSpace=wrap;html=1;align=center;" parent="1" vertex="1">
          <mxGeometry x="780" y="480" width="100" height="40" as="geometry" />
        </mxCell>
        <mxCell id="UATzCVgmIZ4_wf5Clua5-42" value="" style="endArrow=none;html=1;rounded=0;exitX=1;exitY=0.5;exitDx=0;exitDy=0;entryX=0;entryY=0.5;entryDx=0;entryDy=0;" parent="1" source="UATzCVgmIZ4_wf5Clua5-5" target="UATzCVgmIZ4_wf5Clua5-41" edge="1">
          <mxGeometry relative="1" as="geometry">
            <mxPoint x="711" y="500" as="sourcePoint" />
            <mxPoint x="780" y="630" as="targetPoint" />
          </mxGeometry>
        </mxCell>
        <mxCell id="UATzCVgmIZ4_wf5Clua5-44" value="" style="endArrow=none;html=1;rounded=0;exitX=1;exitY=0.5;exitDx=0;exitDy=0;entryX=0;entryY=0.5;entryDx=0;entryDy=0;" parent="1" edge="1">
          <mxGeometry relative="1" as="geometry">
            <mxPoint x="820" y="670" as="sourcePoint" />
            <mxPoint x="910" y="670" as="targetPoint" />
          </mxGeometry>
        </mxCell>
        <mxCell id="UATzCVgmIZ4_wf5Clua5-45" value="N" style="text;html=1;align=center;verticalAlign=middle;resizable=0;points=[];autosize=1;strokeColor=none;fillColor=none;" parent="1" vertex="1">
          <mxGeometry x="230" y="268" width="30" height="30" as="geometry" />
        </mxCell>
        <mxCell id="UATzCVgmIZ4_wf5Clua5-46" value="1,N" style="text;html=1;align=center;verticalAlign=middle;resizable=0;points=[];autosize=1;strokeColor=none;fillColor=none;" parent="1" vertex="1">
          <mxGeometry x="530" y="268" width="40" height="30" as="geometry" />
        </mxCell>
        <mxCell id="UATzCVgmIZ4_wf5Clua5-47" value="" style="endArrow=none;html=1;rounded=0;exitX=0.5;exitY=0;exitDx=0;exitDy=0;entryX=0.62;entryY=1.061;entryDx=0;entryDy=0;entryPerimeter=0;" parent="1" source="UATzCVgmIZ4_wf5Clua5-25" target="UATzCVgmIZ4_wf5Clua5-3" edge="1">
          <mxGeometry relative="1" as="geometry">
            <mxPoint x="90" y="590" as="sourcePoint" />
            <mxPoint x="170" y="530" as="targetPoint" />
          </mxGeometry>
        </mxCell>
        <mxCell id="UATzCVgmIZ4_wf5Clua5-48" value="1" style="text;html=1;align=center;verticalAlign=middle;resizable=0;points=[];autosize=1;strokeColor=none;fillColor=none;" parent="1" vertex="1">
          <mxGeometry x="525" y="298" width="30" height="30" as="geometry" />
        </mxCell>
        <mxCell id="UATzCVgmIZ4_wf5Clua5-49" value="N" style="text;html=1;align=center;verticalAlign=middle;resizable=0;points=[];autosize=1;strokeColor=none;fillColor=none;" parent="1" vertex="1">
          <mxGeometry x="220" y="460" width="30" height="30" as="geometry" />
        </mxCell>
        <mxCell id="UATzCVgmIZ4_wf5Clua5-50" value="N" style="text;html=1;align=center;verticalAlign=middle;resizable=0;points=[];autosize=1;strokeColor=none;fillColor=none;" parent="1" vertex="1">
          <mxGeometry x="570" y="320" width="30" height="30" as="geometry" />
        </mxCell>
        <mxCell id="UATzCVgmIZ4_wf5Clua5-51" value="1" style="text;html=1;align=center;verticalAlign=middle;resizable=0;points=[];autosize=1;strokeColor=none;fillColor=none;" parent="1" vertex="1">
          <mxGeometry x="210" y="650" width="30" height="30" as="geometry" />
        </mxCell>
        <mxCell id="UATzCVgmIZ4_wf5Clua5-52" value="1" style="text;html=1;align=center;verticalAlign=middle;resizable=0;points=[];autosize=1;strokeColor=none;fillColor=none;" parent="1" vertex="1">
          <mxGeometry x="235" y="688" width="30" height="30" as="geometry" />
        </mxCell>
        <mxCell id="UATzCVgmIZ4_wf5Clua5-53" value="N" style="text;html=1;align=center;verticalAlign=middle;resizable=0;points=[];autosize=1;strokeColor=none;fillColor=none;" parent="1" vertex="1">
          <mxGeometry x="565" y="518" width="30" height="30" as="geometry" />
        </mxCell>
        <mxCell id="UATzCVgmIZ4_wf5Clua5-54" value="N" style="text;html=1;align=center;verticalAlign=middle;resizable=0;points=[];autosize=1;strokeColor=none;fillColor=none;" parent="1" vertex="1">
          <mxGeometry x="635" y="320" width="30" height="30" as="geometry" />
        </mxCell>
        <mxCell id="UATzCVgmIZ4_wf5Clua5-55" value="1,N" style="text;html=1;align=center;verticalAlign=middle;resizable=0;points=[];autosize=1;strokeColor=none;fillColor=none;" parent="1" vertex="1">
          <mxGeometry x="630" y="448" width="40" height="30" as="geometry" />
        </mxCell>
        <mxCell id="UATzCVgmIZ4_wf5Clua5-56" value="1,N" style="text;html=1;align=center;verticalAlign=middle;resizable=0;points=[];autosize=1;strokeColor=none;fillColor=none;" parent="1" vertex="1">
          <mxGeometry x="660" y="518" width="40" height="30" as="geometry" />
        </mxCell>
        <mxCell id="UATzCVgmIZ4_wf5Clua5-57" value="1" style="text;html=1;align=center;verticalAlign=middle;resizable=0;points=[];autosize=1;strokeColor=none;fillColor=none;" parent="1" vertex="1">
          <mxGeometry x="755" y="618" width="30" height="30" as="geometry" />
        </mxCell>
        <mxCell id="FUfgEvIZvZl2OaoueBH_-1" value="TIPO_CARTA" style="ellipse;whiteSpace=wrap;html=1;align=center;fontSize=16;" vertex="1" parent="1">
          <mxGeometry x="740" y="298" width="110" height="52" as="geometry" />
        </mxCell>
        <mxCell id="FUfgEvIZvZl2OaoueBH_-2" value="TIPO_TRANSAZIONE" style="ellipse;whiteSpace=wrap;html=1;align=center;fontSize=16;" vertex="1" parent="1">
          <mxGeometry x="110" y="800" width="190" height="60" as="geometry" />
        </mxCell>
        <mxCell id="FUfgEvIZvZl2OaoueBH_-3" value="" style="endArrow=none;html=1;rounded=0;entryX=0.615;entryY=1.022;entryDx=0;entryDy=0;entryPerimeter=0;" edge="1" parent="1" source="FUfgEvIZvZl2OaoueBH_-2" target="UATzCVgmIZ4_wf5Clua5-4">
          <mxGeometry relative="1" as="geometry">
            <mxPoint x="130" y="770" as="sourcePoint" />
            <mxPoint x="195" y="740" as="targetPoint" />
          </mxGeometry>
        </mxCell>
        <mxCell id="FUfgEvIZvZl2OaoueBH_-4" value="" style="endArrow=none;html=1;rounded=0;exitX=1;exitY=0.75;exitDx=0;exitDy=0;entryX=0;entryY=0.5;entryDx=0;entryDy=0;" edge="1" parent="1" source="UATzCVgmIZ4_wf5Clua5-2" target="FUfgEvIZvZl2OaoueBH_-1">
          <mxGeometry relative="1" as="geometry">
            <mxPoint x="656" y="286" as="sourcePoint" />
            <mxPoint x="710" y="238" as="targetPoint" />
          </mxGeometry>
        </mxCell>
      </root>
    </mxGraphModel>
  </diagram>
</mxfile>
